# xmcd
#
# Track frame offsets:
#	150
#	33986
#	52429
#	64473
#	76950
#	95700
#	108433
#	123196
#	158186
#	186006
#	206482
#	223537
#	244997
#	267080
#	284141
#	302328
#	313368
#
# Disc length: 4729 seconds
#
# Revision: 0
# Processed by: cddbd v1.5.2PL0 Copyright (c) Steve Scherf et al.
# Submitted via: EZCDAudioConverter 7.0.6.1
#
DISCID=05127711
DTITLE=V/A - Lullabies For Catatonics 1/3
DYEAR=1900
DGENRE=
TTITLE0=The Soft Machine - I Should've Known
TTITLE1=The Riot Squad featuring David Bowie - I'm Waiting For The Man
TTITLE2=Procol Harum - Conquistador
TTITLE3=The End - Bypass The By-Pass
TTITLE4=Dantalian's Chariot - World War Three
TTITLE5=The Zombies - Butcher's Tale (Western Front 1914)
TTITLE6=Giles, Giles and Fripp - I Talk To The Wind
TTITLE7=The Liverpool Scene - Tramcar To Frankenstein
TTITLE8=The Strawbs - The Battle
TTITLE9=Woody Kern - Xoanan Bay
TTITLE10=Genesis - In The Beginning
TTITLE11=The Velvet Frogs - Wasted Ground (Memento Mori)
TTITLE12=Yes - Beyond And Before
TTITLE13=Third Ear Band - Druid One
TTITLE14=Bachdenkel - Through The Eyes Of A Child
TTITLE15=The Crazy World Of Arthur Brown - All Over The Country
TTITLE16=Eyes Of Blue - Merry Go Round
EXTD=
EXTT0=
EXTT1=
EXTT2=
EXTT3=
EXTT4=
EXTT5=
EXTT6=
EXTT7=
EXTT8=
EXTT9=
EXTT10=
EXTT11=
EXTT12=
EXTT13=
EXTT14=
EXTT15=
EXTT16=
PLAYORDER=
